<?xml version="1.0" standalone="no"?>
<!DOCTYPE svg PUBLIC "-//W3C//DTD SVG 20010904//EN"
 "http://www.w3.org/TR/2001/REC-SVG-20010904/DTD/svg10.dtd">
<svg version="1.0" xmlns="http://www.w3.org/2000/svg"
 width="260.000000pt" height="260.000000pt" viewBox="0 0 260.000000 260.000000"
 preserveAspectRatio="xMidYMid meet">
<metadata>
Created by potrace 1.11, written by Peter Selinger 2001-2013
</metadata>
<g transform="translate(0.000000,260.000000) scale(0.100000,-0.100000)"
fill="#000000" stroke="none">
<path d="M150 1450 l0 -1088 1089 0 1090 0 -2 1086 -2 1087 -1087 1 -1088 2 0
-1088z"/>
<path d="M2439 2355 c0 -11 -2 -488 -2 -1060 l-2 -1040 -1000 -2 c-550 -1
-1028 -3 -1061 -3 l-61 0 1 -82 1 -83 1141 -1 1140 -1 0 1145 -1 1146 -77 0
c-72 1 -78 0 -79 -19z"/>
</g>
</svg>
